<?xml version="1.0" encoding="UTF-8"?>
<svg version="1.1" xmlns="http://www.w3.org/2000/svg" width="256" height="256">
<path d="M0 0 C9.5625 10.07065217 9.5625 10.07065217 9.5625 16.125 C10.1611084 16.28355469 10.7597168 16.44210938 11.37646484 16.60546875 C18.02252889 18.46868283 24.03630262 21.01206809 30.1875 24.125 C31.14172852 24.60630371 32.09595703 25.08760742 33.07910156 25.58349609 C48.10805921 33.33477043 67.90452754 44.15108262 73.5625 61.125 C75.79974882 93.9060954 68.55078766 123.68555765 48.51171875 149.984375 C42.29168488 156.81519375 31.69520899 158.70327172 22.83642578 159.43115234 C18.71927932 159.56452397 14.6184626 159.59703577 10.5 159.5625 C9.76681549 159.56045563 9.03363098 159.55841125 8.27822876 159.55630493 C-28.36248412 159.39107564 -28.36248412 159.39107564 -39.4375 152.125 C-34.96827975 127.34114227 -34.96827975 127.34114227 -28.4375 119.125 C-27.98375 118.526875 -27.53 117.92875 -27.0625 117.3125 C-24.60791125 115.51876207 -22.4481019 115.42853079 -19.4375 115.125 C-16.03515625 115.68359375 -16.03515625 115.68359375 -12.5 116.5625 C-7.6938171 117.74940895 -3.39944683 118.56088703 1.5625 118.125 C3.92803626 116.59260859 4.43054978 115.53355174 5.29296875 112.86328125 C5.51919922 111.66251953 5.51919922 111.66251953 5.75 110.4375 C5.90855469 109.62925781 6.06710938 108.82101563 6.23046875 107.98828125 C6.34003906 107.37339844 6.44960937 106.75851563 6.5625 106.125 C-20.20560801 92.06800473 -47.8661991 83.72231946 -77.44042969 77.73974609 C-81.45108552 76.91709772 -85.44422537 76.02793789 -89.4375 75.125 C-88.85742188 75.89070313 -88.85742188 75.89070313 -88.265625 76.671875 C-79.36895502 89.09197863 -77.75922192 102.18580348 -79.4375 117.125 C-80.52235387 122.66609979 -82.35728295 127.88033156 -84.4375 133.125 C-84.73914063 134.07375 -85.04078125 135.0225 -85.3515625 136 C-86.4375 138.125 -86.4375 138.125 -88.19677734 138.86425781 C-91.07845313 139.19958465 -92.69816881 138.52782894 -95.375 137.421875 C-96.34284424 137.02403809 -97.31068848 136.62620117 -98.30786133 136.21630859 C-99.34064209 135.77367676 -100.37342285 135.33104492 -101.4375 134.875 C-102.50315186 134.42334473 -103.56880371 133.97168945 -104.66674805 133.50634766 C-119.06672983 127.27510229 -133.21651477 120.06226576 -145.4375 110.125 C-146.24445313 109.49207031 -147.05140625 108.85914063 -147.8828125 108.20703125 C-154.29318994 102.90736277 -160.12473388 96.47657537 -161.3125 87.9375 C-161.38856048 86.33459588 -161.42539848 84.72966207 -161.4375 83.125 C-161.47488281 82.01253906 -161.51226562 80.90007812 -161.55078125 79.75390625 C-162.10928225 51.50551365 -153.33477815 21.68923272 -134.4375 0.125 C-122.6389177 -9.38430514 -106.23144911 -8.21433437 -92.04394531 -7.5012207 C-84.16490008 -7.26888988 -78.94570787 -8.41921689 -72.10253906 -12.39208984 C-49.72896103 -24.84144061 -17.71119183 -16.82432803 0 0 Z M-90.1875 7.4375 C-98.12575495 18.31584937 -101.75595529 29.69959538 -101.4375 43.125 C-64.90442624 61.29518841 -27.4532232 74.65523554 13.5625 78.125 C13.36398438 77.18140625 13.16546875 76.2378125 12.9609375 75.265625 C12.5625 72.125 12.5625 72.125 14.1875 69.875 C16.58643895 68.10736078 18.74452849 67.06432384 21.5625 66.125 C21.12333835 60.9610647 19.63697443 58.55670155 16.1875 54.75 C9.47278552 46.78826712 8.47327969 41.37341372 8.03393555 31.12597656 C7.71022646 25.08622802 6.4453301 20.40864359 3.5625 15.125 C3.15128906 14.36960937 2.74007812 13.61421875 2.31640625 12.8359375 C-5.40837111 0.0999023 -17.1904096 -6.60839517 -31.1875 -10.75 C-52.45369518 -15.42912331 -76.09114501 -9.86952152 -90.1875 7.4375 Z M-126.4375 3.125 C-121.649631 3.08088269 -116.86308535 3.01109085 -112.07592773 2.91748047 C-110.44745415 2.88925511 -108.81884317 2.86804828 -107.19018555 2.85400391 C-104.84873029 2.83259468 -102.50892955 2.78596036 -100.16796875 2.734375 C-99.43974411 2.73314636 -98.71151947 2.73191772 -97.96122742 2.73065186 C-93.72078552 2.60908231 -93.72078552 2.60908231 -90.4543457 0.08691406 C-90.11878662 -0.56051758 -89.78322754 -1.20794922 -89.4375 -1.875 C-109.09816554 -3.65145471 -109.09816554 -3.65145471 -126.4375 3.125 Z M-133.4375 11.125 C-133.4375 11.455 -133.4375 11.785 -133.4375 12.125 C-128.65040532 12.24858454 -123.86423819 12.33932771 -119.07592773 12.3996582 C-117.4471825 12.42480568 -115.81855015 12.45892878 -114.19018555 12.50219727 C-111.84916366 12.5628455 -109.50963269 12.59120476 -107.16796875 12.61328125 C-106.43974411 12.63908768 -105.71151947 12.6648941 -104.96122742 12.69148254 C-102.65366718 12.74856303 -102.65366718 12.74856303 -99.4375 12.125 C-97.38380715 9.73962152 -97.38380715 9.73962152 -96.4375 7.125 C-109.54610624 5.84754962 -121.36076097 5.26382869 -133.4375 11.125 Z M-139.4375 15.125 C-152.59585363 32.51902419 -157.19213765 55.85539816 -156.4375 77.125 C-151.4875 74.65 -151.4875 74.65 -146.4375 72.125 C-146.41171875 70.89007813 -146.3859375 69.65515625 -146.359375 68.3828125 C-145.89258839 52.73768133 -143.76592867 38.27248409 -137.29296875 23.921875 C-136.28050466 20.61171844 -136.63437128 18.45576697 -137.4375 15.125 C-138.0975 15.125 -138.7575 15.125 -139.4375 15.125 Z M-131.4375 17.125 C-129.8299124 20.25271752 -129.8299124 20.25271752 -127.46972656 20.64916992 C-126.28588379 20.75128784 -126.28588379 20.75128784 -125.078125 20.85546875 C-124.20929688 20.93603516 -123.34046875 21.01660156 -122.4453125 21.09960938 C-121.08019531 21.20499023 -121.08019531 21.20499023 -119.6875 21.3125 C-118.79289062 21.39435547 -117.89828125 21.47621094 -116.9765625 21.56054688 C-112.45155399 21.95765308 -107.98398879 22.22285489 -103.4375 22.125 C-102.7775 20.145 -102.1175 18.165 -101.4375 16.125 C-106.70496661 14.56406731 -112.11628309 14.94068492 -117.5625 14.9375 C-119.22732422 14.91913086 -119.22732422 14.91913086 -120.92578125 14.90039062 C-121.98410156 14.89845703 -123.04242188 14.89652344 -124.1328125 14.89453125 C-125.10234863 14.89042236 -126.07188477 14.88631348 -127.07080078 14.88208008 C-129.62605727 14.89274892 -129.62605727 14.89274892 -131.4375 17.125 Z M-135.4375 22.125 C-140.93021606 35.58541089 -144.66271414 48.4557764 -144.5 63.0625 C-144.49548828 63.84173828 -144.49097656 64.62097656 -144.48632812 65.42382812 C-144.47466908 67.32425268 -144.45673877 69.22463706 -144.4375 71.125 C-141.1375 70.465 -137.8375 69.805 -134.4375 69.125 C-134.46070313 68.07183594 -134.48390625 67.01867187 -134.5078125 65.93359375 C-134.70250079 53.10513332 -133.53117767 40.91470803 -130.51171875 28.39453125 C-130.23339675 26.00967164 -130.23339675 26.00967164 -131.76953125 23.82421875 C-132.31996094 23.26347656 -132.87039062 22.70273438 -133.4375 22.125 C-134.0975 22.125 -134.7575 22.125 -135.4375 22.125 Z M-125.4375 23.125 C-122.18341372 27.58430342 -119.52611047 30.63632584 -113.89453125 31.52734375 C-111.40894645 31.78326433 -108.93205498 31.98452991 -106.4375 32.125 C-106.1075 29.815 -105.7775 27.505 -105.4375 25.125 C-112.20235645 23.5129491 -118.48708914 22.85881405 -125.4375 23.125 Z M12.5625 23.125 C12.33145385 26.48495485 12.33145385 26.48495485 13.5625 30.125 C16.33738929 32.21524814 19.45978714 33.32623614 22.6875 34.5625 C24.52765406 35.32947621 26.36618782 36.10035086 28.203125 36.875 C29.11513672 37.25269531 30.02714844 37.63039063 30.96679688 38.01953125 C42.49870481 42.93078775 52.54229435 49.67904608 62.5625 57.125 C63.5525 57.785 64.5425 58.445 65.5625 59.125 C58.20695282 41.73916121 32.95212307 31.16088765 16.5625 24.3046875 C13.94466276 23.06400795 13.94466276 23.06400795 12.5625 23.125 Z M-128.4375 29.125 C-132.27740339 42.26278267 -134.07450221 55.52141717 -131.4375 69.125 C-126.9825 68.63 -126.9825 68.63 -122.4375 68.125 C-122.60765625 66.74054688 -122.7778125 65.35609375 -122.953125 63.9296875 C-123.36312671 59.86264253 -123.46161351 55.90611231 -123.359375 51.8203125 C-123.33359375 50.74265625 -123.3078125 49.665 -123.28125 48.5546875 C-123.21807165 46.32765077 -123.13962505 44.10100124 -123.046875 41.875 C-122.71541481 35.5216578 -122.71541481 35.5216578 -125.953125 30.3671875 C-126.77296875 29.95726562 -127.5928125 29.54734375 -128.4375 29.125 Z M-113.4375 33.125 C-111.7875 34.445 -110.1375 35.765 -108.4375 37.125 C-107.7775 36.795 -107.1175 36.465 -106.4375 36.125 C-106.4375 35.465 -106.4375 34.805 -106.4375 34.125 C-108.7475 33.795 -111.0575 33.465 -113.4375 33.125 Z M13.5625 35.125 C13.5625 37.435 13.5625 39.745 13.5625 42.125 C18.47305065 44.38260486 23.38150141 46.63757743 28.36328125 48.734375 C40.36851556 53.80948266 51.76554721 59.42225136 61.890625 67.77734375 C63.53253477 69.19882523 63.53253477 69.19882523 65.5625 70.125 C65.45364915 66.53292193 64.30610778 64.49390021 61.9375 61.9375 C52.04733727 52.77629349 40.29830221 46.78402511 28.25 41 C27.63870239 40.70615417 27.02740479 40.41230835 26.39758301 40.10955811 C20.2290372 36.67113732 20.2290372 36.67113732 13.5625 35.125 Z M-120.4375 36.125 C-121.72554306 39.98912917 -121.62827226 43.66016471 -121.625 47.6875 C-121.62564453 48.49364746 -121.62628906 49.29979492 -121.62695312 50.13037109 C-121.57524263 55.97483192 -121.02698137 61.47666443 -119.4375 67.125 C-115.04496227 68.68772189 -115.04496227 68.68772189 -110.4375 69.125 C-110.71464844 67.96484375 -110.99179688 66.8046875 -111.27734375 65.609375 C-113.16602792 57.51761695 -114.86677387 49.75948709 -115.06640625 41.41015625 C-115.51112373 38.67163279 -116.23032047 37.76014767 -118.4375 36.125 C-119.0975 36.125 -119.7575 36.125 -120.4375 36.125 Z M-112.4375 41.125 C-111.33685304 55.58207828 -111.33685304 55.58207828 -106.4375 69.125 C-104.7875 69.125 -103.1375 69.125 -101.4375 69.125 C-101.61925781 68.57714844 -101.80101562 68.02929688 -101.98828125 67.46484375 C-104.09156689 60.83140442 -105.35064252 54.21420602 -106.3984375 47.34765625 C-107.15123724 43.94760069 -107.15123724 43.94760069 -110.0390625 42.18359375 C-110.83054688 41.83425781 -111.62203125 41.48492187 -112.4375 41.125 Z M-101.4375 46.125 C-101.20733865 55.39422527 -98.60592857 64.37235715 -93.4375 72.125 C-90.926814 72.97090438 -90.926814 72.97090438 -87.91796875 73.44921875 C-86.76546631 73.66868164 -85.61296387 73.88814453 -84.42553711 74.11425781 C-82.54427124 74.4598877 -82.54427124 74.4598877 -80.625 74.8125 C-51.32626152 80.49755545 -21.70408929 88.52719428 5.0703125 101.9453125 C7.40423567 103.26761424 7.40423567 103.26761424 9.5625 103.125 C9.5625 102.465 9.5625 101.805 9.5625 101.125 C8.02012219 100.02159339 8.02012219 100.02159339 6.125 98.9375 C3.05813855 96.83059112 2.62307124 96.30671373 1.375 92.5625 C1.5625 89.125 1.5625 89.125 3.0625 86.875 C6.12501669 84.73123832 9.0742303 83.46664219 12.5625 82.125 C12.5625 81.465 12.5625 80.805 12.5625 80.125 C11.98209961 80.04048584 11.40169922 79.95597168 10.80371094 79.86889648 C-25.00565284 74.54352655 -60.99464736 64.82332056 -93.64746094 48.94042969 C-96.17807377 47.78764097 -98.77976774 46.93315056 -101.4375 46.125 Z M17.5625 48.125 C18.47494206 49.37808709 19.39267771 50.62732026 20.3125 51.875 C20.82296875 52.57109375 21.3334375 53.2671875 21.859375 53.984375 C26.31106649 59.57962027 30.7489162 61.80489742 37.25 64.5625 C38.98483183 65.30711321 40.71792142 66.05579905 42.44921875 66.80859375 C43.3004834 67.17839355 44.15174805 67.54819336 45.02880859 67.92919922 C48.32289667 69.48387675 51.39487195 71.33787907 54.46801758 73.28930664 C57.17140615 74.36795206 58.80927382 73.90507575 61.5625 73.125 C58.07431819 63.67519838 41.91885062 58.1723331 33.5 54.125 C32.50073486 53.64409912 31.50146973 53.16319824 30.47192383 52.66772461 C26.14973692 50.63532651 22.3002445 48.91241917 17.5625 48.125 Z M27.5625 63.125 C26.30585022 66.03100261 25.5625 67.92104584 25.5625 71.125 C35.21487012 75.35097423 42.86365902 78.3539252 53.5625 76.125 C53.5625 75.465 53.5625 74.805 53.5625 74.125 C50.17112954 72.46985354 46.77369183 70.8275534 43.375 69.1875 C42.41529297 68.71892578 41.45558594 68.25035156 40.46679688 67.76757812 C39.53544922 67.31962891 38.60410156 66.87167969 37.64453125 66.41015625 C36.79093018 65.99644775 35.9373291 65.58273926 35.05786133 65.15649414 C32.55735157 64.12287182 30.22667239 63.56103135 27.5625 63.125 Z M17.5625 73.125 C18.2225 74.445 18.8825 75.765 19.5625 77.125 C25.1725 77.125 30.7825 77.125 36.5625 77.125 C34.10978808 74.67228808 32.01710763 74.01909194 28.75 72.875 C27.19345703 72.31039062 27.19345703 72.31039062 25.60546875 71.734375 C22.13826604 71.04004429 20.64617404 71.50621363 17.5625 73.125 Z M-123.4375 74.125 C-119.70826733 77.85423267 -113.99450878 78.91159152 -109.0612793 80.60327148 C-107.00757704 81.30989295 -104.95988242 82.03226205 -102.91210938 82.75585938 C-101.60971045 83.2066994 -100.30698624 83.65660103 -99.00390625 84.10546875 C-97.81740479 84.51692139 -96.63090332 84.92837402 -95.40844727 85.35229492 C-92.41279974 86.41945636 -92.41279974 86.41945636 -89.4375 85.125 C-90.55779017 83.64226301 -91.68388618 82.16391114 -92.8125 80.6875 C-93.43898438 79.86378906 -94.06546875 79.04007812 -94.7109375 78.19140625 C-97.72738932 74.58121844 -100.82334276 74.73181874 -105.28515625 74.3125 C-111.33097339 73.95289749 -117.38389596 74.05235675 -123.4375 74.125 Z M63.18847656 77.484375 C60.30609114 80.39272786 60.27153873 83.69145592 59.9375 87.625 C59.06664531 94.70580122 57.47254422 100.69621563 54.68359375 107.30859375 C53.42088042 110.48077601 52.782345 113.5296359 52.1796875 116.875 C51.39568355 119.733141 50.06249084 122.1282558 48.6875 124.75 C46.80093788 128.43305357 46.80093788 128.43305357 47.12890625 132.37890625 C48.3178041 134.5497539 48.3178041 134.5497539 50.5625 137.125 C54.46814573 133.74126684 56.37502529 130.04265507 58.5 125.4375 C58.84627441 124.69072998 59.19254883 123.94395996 59.54931641 123.17456055 C66.54680726 107.61679503 70.19096362 91.23317628 69.5625 74.125 C67.0997485 74.125 65.098801 76.09575734 63.18847656 77.484375 Z M-136.125 75.125 C-136.93324219 75.310625 -137.74148437 75.49625 -138.57421875 75.6875 C-139.18910156 75.831875 -139.80398437 75.97625 -140.4375 76.125 C-138.68190211 79.63619578 -134.46510032 80.59256302 -131 82.125 C-130.12633789 82.51437744 -129.25267578 82.90375488 -128.35253906 83.30493164 C-120.87475343 86.58835459 -113.30336567 89.61546994 -105.6875 92.5625 C-104.59381104 92.98724609 -103.50012207 93.41199219 -102.37329102 93.84960938 C-96.7733448 95.98522229 -91.29131137 97.83122285 -85.4375 99.125 C-85.9531643 93.26569995 -85.9531643 93.26569995 -88.4375 88.125 C-91.0200431 86.95389691 -93.42786841 86.03503377 -96.11328125 85.1796875 C-96.87545456 84.9237381 -97.63762787 84.6677887 -98.42289734 84.40408325 C-100.86084663 83.58864463 -103.30497185 82.79393086 -105.75 82 C-108.18261231 81.19434615 -110.61382799 80.38457847 -113.04496765 79.57449341 C-114.55746133 79.07226344 -116.07109941 78.57346305 -117.58601379 78.07858276 C-120.51712291 77.11891003 -123.40442408 76.13870734 -126.25463867 74.95751953 C-129.77023515 73.61670933 -132.57082887 74.30084438 -136.125 75.125 Z M-147.6953125 78.0078125 C-148.27023438 78.37648438 -148.84515625 78.74515625 -149.4375 79.125 C-145.95241538 82.84372158 -142.39793809 85.7092335 -138 88.3125 C-137.35949707 88.69269287 -136.71899414 89.07288574 -136.05908203 89.46459961 C-111.39418575 104.15902193 -111.39418575 104.15902193 -84.4375 111.125 C-84.4375 108.155 -84.4375 105.185 -84.4375 102.125 C-85.34290527 101.80337891 -86.24831055 101.48175781 -87.18115234 101.15039062 C-128.27895478 86.52114975 -128.27895478 86.52114975 -143.4921875 77.7421875 C-145.50583569 76.87894532 -145.50583569 76.87894532 -147.6953125 78.0078125 Z M50.5625 82.125 C49.53214161 85.0420591 48.95004728 87.93905831 48.34765625 90.97265625 C47.58632772 94.02933347 46.62765516 96.00068501 44.9375 98.625 C42.20277857 103.11484115 41.96747746 107.12301846 41.7421875 112.3046875 C41.51684686 115.84155578 40.7015156 118.78388757 39.5625 122.125 C41.18589805 123.83384005 42.85569053 125.49946717 44.5625 127.125 C45.2225 127.125 45.8825 127.125 46.5625 127.125 C49.23332115 120.3898858 51.83055892 113.68882939 53.80859375 106.71484375 C54.36615882 104.79947774 54.96966745 102.89735174 55.59765625 101.00390625 C57.89961679 93.99901558 59.26695807 87.49877122 59.5625 80.125 C55.73027754 80.125 53.928563 80.16146325 50.5625 82.125 Z M-153.4375 82.125 C-146.85861559 99.66869176 -119.75286628 108.71117758 -104.25634766 115.85546875 C-95.64197911 120.20806265 -95.64197911 120.20806265 -86.4375 122.125 C-86.1075 119.815 -85.7775 117.505 -85.4375 115.125 C-91.31865344 112.6614394 -97.20336284 110.21050883 -103.12109375 107.8359375 C-113.23869123 103.74836201 -123.18385354 99.46370521 -132.875 94.4375 C-133.70765381 94.01065918 -134.54030762 93.58381836 -135.39819336 93.14404297 C-140.58191548 90.38968196 -145.08984083 87.21664905 -149.60961914 83.46948242 C-151.32783651 81.92749338 -151.32783651 81.92749338 -153.4375 82.125 Z M14.34375 86.03515625 C11.83473854 87.5702751 9.20426898 88.83633221 6.5625 90.125 C6.93847809 92.63505093 7.15163115 93.80379318 9.19140625 95.3984375 C9.82949219 95.76195312 10.46757812 96.12546875 11.125 96.5 C13.0390625 97.75390625 13.0390625 97.75390625 14.5625 99.125 C15 102.4375 15 102.4375 14.5625 105.125 C16.2125 105.455 17.8625 105.785 19.5625 106.125 C20.46218746 102.60803994 20.90454971 100.80909942 19.25 97.5 C18.693125 96.71625 18.13625 95.9325 17.5625 95.125 C16.88153578 93.79891178 16.20919414 92.46813399 15.5625 91.125 C16.305 90.8775 17.0475 90.63 17.8125 90.375 C20.79273087 89.02034961 22.46169252 87.6148459 24.5625 85.125 C24.5625 84.465 24.5625 83.805 24.5625 83.125 C20.3433059 82.61358253 17.91016993 83.83742818 14.34375 86.03515625 Z M28.5625 83.125 C27.985 84.1975 27.4075 85.27 26.8125 86.375 C25.07874176 89.4276529 23.1990092 91.77097393 20.5625 94.125 C21.5525 95.61 21.5525 95.61 22.5625 97.125 C22.79296875 99.53515625 22.79296875 99.53515625 22.75 102.1875 C22.74355469 103.06535156 22.73710937 103.94320312 22.73046875 104.84765625 C22.5625 107.125 22.5625 107.125 21.5625 109.125 C25.0275 111.105 25.0275 111.105 28.5625 113.125 C30.52027993 107.09314097 30.52027993 107.09314097 29.3125 101.0625 C28.6875 99.0625 28.6875 99.0625 28.5625 97.125 C29.83401177 95.07645325 31.31321028 93.56179621 33.0234375 91.8671875 C35.39921238 89.17785858 35.85402583 86.59652343 36.5625 83.125 C33.9225 83.125 31.2825 83.125 28.5625 83.125 Z M42.6875 82 C39.44792557 82.77343219 39.44792557 82.77343219 38.421875 85.2421875 C37.75382329 87.02896071 37.11801669 88.82805781 36.51171875 90.63671875 C35.5625 93.125 35.5625 93.125 33.25 95.6875 C30.95567386 99.00152665 31.68099732 100.92388022 32.33203125 104.765625 C32.69951215 108.52763285 31.67059482 111.53998734 30.5625 115.125 C34.0275 117.105 34.0275 117.105 37.5625 119.125 C39.76575973 114.81427444 40.73235008 111.47615479 41 106.625 C41.34826357 101.32123607 42.69850267 98.55117769 45.5625 94.125 C47.26700789 89.94895567 47.7769581 86.62862002 47.5625 82.125 C45.9369659 82.125 44.31149985 82.07060869 42.6875 82 Z M-154.4375 90.125 C-154.1075 91.115 -153.7775 92.105 -153.4375 93.125 C-153.4375 92.135 -153.4375 91.145 -153.4375 90.125 C-153.7675 90.125 -154.0975 90.125 -154.4375 90.125 Z M-152.4375 93.125 C-143.91976879 112.28989522 -115.3894857 122.72344064 -97.43505859 130.35986328 C-95.13302887 131.24162338 -92.88184928 131.80272271 -90.4375 132.125 C-89.7775 130.145 -89.1175 128.165 -88.4375 126.125 C-89.49940552 125.71157349 -89.49940552 125.71157349 -90.58276367 125.28979492 C-129.89052656 109.88861911 -129.89052656 109.88861911 -145.28125 97.78125 C-147.56891605 96.02405724 -149.94133081 94.56644981 -152.4375 93.125 Z M11.5625 110.125 C11.2325 111.775 10.9025 113.425 10.5625 115.125 C11.97627782 115.49052803 13.39370576 115.84195495 14.8125 116.1875 C15.99585938 116.48333984 15.99585938 116.48333984 17.203125 116.78515625 C19.66644822 117.13997267 21.21854132 116.89377544 23.5625 116.125 C21.94079621 115.11966333 20.31502763 114.12088093 18.6875 113.125 C17.78257812 112.568125 16.87765625 112.01125 15.9453125 111.4375 C13.72392533 109.96417671 13.72392533 109.96417671 11.5625 110.125 Z M10.5625 116.125 C9.94375 117.07375 9.325 118.0225 8.6875 119 C6.5625 122.125 6.5625 122.125 4.5625 124.125 C8.3728935 124.80408897 12.18609019 125.46597063 16 126.125 C17.06927734 126.31578125 18.13855469 126.5065625 19.24023438 126.703125 C25.44912998 127.76642211 31.26411952 128.33693289 37.5625 128.125 C32.27081438 121.13241543 28.22476397 119.5342148 19.8125 117.9375 C18.48025391 117.67163086 18.48025391 117.67163086 17.12109375 117.40039062 C14.93656943 116.96583471 12.75060691 116.54107088 10.5625 116.125 Z M-24.75 123.5 C-26.61775253 125.88528917 -26.61775253 125.88528917 -26.4375 128.125 C-18.62644762 130.342331 -10.74284627 131.85838552 -2.75 133.25 C-1.77667725 133.42047852 -0.80335449 133.59095703 0.19946289 133.76660156 C10.45347302 135.51870928 20.21122014 136.26561837 30.625 136.1875 C31.77677734 136.18298828 32.92855469 136.17847656 34.11523438 136.17382812 C36.93104518 136.16214426 39.74674398 136.14576281 42.5625 136.125 C42.7861068 133.1995356 42.7861068 133.1995356 41.5625 131.125 C39.60101258 130.67498749 39.60101258 130.67498749 37.19140625 130.51953125 C36.24040039 130.42647705 35.28939453 130.33342285 34.30957031 130.23754883 C33.25866211 130.13853271 32.20775391 130.0395166 31.125 129.9375 C18.49200265 128.61289142 6.22462792 126.16208904 -6.17358398 123.4621582 C-6.88447678 123.30880005 -7.59536957 123.15544189 -8.32780457 122.99743652 C-10.26827298 122.5772737 -12.20695766 122.14889698 -14.14550781 121.7199707 C-20.0656744 120.41350263 -20.0656744 120.41350263 -24.75 123.5 Z M-28.4375 131.125 C-30.20179535 133.99656692 -30.20179535 133.99656692 -29.99609375 137.265625 C-29.81175781 137.87921875 -29.62742188 138.4928125 -29.4375 139.125 C-25.40437761 139.82649661 -21.36993567 140.5198248 -17.33422852 141.20629883 C-15.96765271 141.43985091 -14.60142585 141.67545613 -13.2355957 141.91333008 C17.06935361 147.75918457 17.06935361 147.75918457 45.5625 140.125 C45.5625 139.795 45.5625 139.465 45.5625 139.125 C44.95704346 139.14594727 44.35158691 139.16689453 43.7277832 139.18847656 C19.18674933 139.9126307 -4.51216447 136.36127832 -28.4375 131.125 Z M-32.4375 143.125 C-32.7675 145.105 -33.0975 147.085 -33.4375 149.125 C-10.30907381 154.31074578 18.05326808 158.96743981 40.5625 149.125 C40.5625 148.795 40.5625 148.465 40.5625 148.125 C38.72365234 148.26808594 38.72365234 148.26808594 36.84765625 148.4140625 C15.42439145 149.87560242 -5.24796975 147.61489996 -26.26879883 143.46044922 C-28.73058343 143.02309354 -28.73058343 143.02309354 -32.4375 143.125 Z " fill="#65C4A8" transform="translate(171.4375,56.875)"/>
</svg>
