<?xml version="1.0" encoding="UTF-8"?>
<svg version="1.1" xmlns="http://www.w3.org/2000/svg" width="256" height="256">
<path d="M0 0 C1.06064667 0.00007553 2.12129333 0.00015106 3.21408081 0.00022888 C4.9065947 0.00797081 4.9065947 0.00797081 6.63330078 0.01586914 C8.38515182 0.01799156 8.38515182 0.01799156 10.1723938 0.02015686 C13.89116002 0.02574041 17.60986535 0.03828995 21.32861328 0.05102539 C23.85465408 0.05604251 26.38069582 0.06060505 28.90673828 0.06469727 C35.08907211 0.07485222 41.27127478 0.094431 47.45361328 0.11352539 C47.45361328 12.65352539 47.45361328 25.19352539 47.45361328 38.11352539 C42.69890625 38.15219727 42.69890625 38.15219727 37.84814453 38.19165039 C34.73681212 38.23019601 31.62563848 38.27531574 28.5144043 38.32104492 C26.37223038 38.34905982 24.22995684 38.37036996 22.08764648 38.38452148 C-0.49007467 38.20420553 -0.49007467 38.20420553 -19.54638672 49.11352539 C-26.9931847 57.46141993 -29.90690847 66.067155 -29.75732422 77.21118164 C-29.03382079 87.1660529 -24.53032773 95.6713155 -17.23388672 102.42602539 C-10.63228429 107.69559717 -3.04996743 110.16062764 5.33569336 110.31884766 C6.27629105 110.33879288 7.21688873 110.3587381 8.18598938 110.37928772 C9.18825058 110.39600021 10.19051178 110.41271271 11.22314453 110.42993164 C12.77735359 110.46110329 12.77735359 110.46110329 14.36296082 110.49290466 C17.66394593 110.55814669 20.96500877 110.61716718 24.26611328 110.67602539 C26.50765769 110.71923472 28.74919432 110.76284978 30.99072266 110.80688477 C36.47827445 110.91456349 41.96588753 111.0138257 47.45361328 111.11352539 C47.45361328 123.65352539 47.45361328 136.19352539 47.45361328 149.11352539 C40.03720106 149.20594174 32.62283058 149.28540645 25.20629883 149.33325195 C22.68962795 149.3532217 20.17300259 149.3804071 17.65649414 149.4152832 C-8.64568709 149.77036526 -29.0521421 145.91668896 -48.54638672 127.11352539 C-63.48364027 111.55062771 -69.21604935 92.5076309 -69.01513672 71.31762695 C-68.41146591 50.53500164 -60.18257968 34.43245984 -45.54638672 20.11352539 C-44.83998047 19.37489258 -44.13357422 18.63625977 -43.40576172 17.87524414 C-32.52520501 7.18156722 -15.22975013 -0.03643481 0 0 Z " fill="#FAECBC" transform="translate(73.54638671875,53.886474609375)"/>
<path d="M0 0 C7.27401002 -0.09243359 14.54593633 -0.17189246 21.82006836 -0.21972656 C24.28823803 -0.23969219 26.75636133 -0.26687437 29.22436523 -0.30175781 C54.53025259 -0.65016849 75.08547041 2.80850288 94 21 C99.99560775 27.12983778 104.57036025 33.45576827 108.4375 41.0625 C108.75549561 41.68648682 109.07349121 42.31047363 109.40112305 42.95336914 C114.30753684 53.19519443 115.5309409 63.02895977 115.4375 74.3125 C115.42920166 75.59833984 115.42090332 76.88417969 115.41235352 78.20898438 C115.04702585 98.66733352 107.13488724 114.50688731 92.8828125 129.1796875 C80.86809022 140.49025023 64.39336619 149.15368345 47.56713867 149.11352539 C46.50641647 149.11344986 45.44569427 149.11337433 44.35282898 149.11329651 C42.65257317 149.10555458 42.65257317 149.10555458 40.91796875 149.09765625 C39.16399529 149.09553383 39.16399529 149.09553383 37.37458801 149.09336853 C33.64553249 149.08777793 29.91653733 149.07522709 26.1875 149.0625 C23.65690191 149.05748379 21.12630288 149.05292109 18.59570312 149.04882812 C12.39709353 149.03866314 6.19861423 149.01908571 0 149 C0 136.46 0 123.92 0 111 C3.20460937 110.96261719 6.40921875 110.92523438 9.7109375 110.88671875 C12.84202592 110.84040225 15.97299957 110.78920545 19.10400391 110.73754883 C21.26669235 110.70445798 23.42946388 110.67637764 25.59228516 110.65356445 C28.71552674 110.61972574 31.83801777 110.56739649 34.9609375 110.51171875 C36.39280899 110.50213387 36.39280899 110.50213387 37.85360718 110.49235535 C49.96703284 110.23178671 59.77571179 106.63072214 68.25 97.875 C75.13156487 89.63879637 76.72528272 81.23800133 76.37109375 70.64453125 C75.31404689 60.26321838 70.96977032 52.74365181 63 46 C56.00701891 41.63382399 49.48048704 38.95416917 41.2097168 38.79467773 C40.28913986 38.77473251 39.36856293 38.75478729 38.42008972 38.73423767 C37.4397023 38.71752518 36.45931488 38.70081268 35.44921875 38.68359375 C34.43527542 38.66281265 33.42133209 38.64203156 32.37666321 38.62062073 C29.14700915 38.55538886 25.91727579 38.49636298 22.6875 38.4375 C20.49413252 38.39428971 18.30077297 38.35067462 16.10742188 38.30664062 C10.73836126 38.19897501 5.36923794 38.09970533 0 38 C0 25.46 0 12.92 0 0 Z " fill="#FAECBC" transform="translate(137,54)"/>
<path d="M0 0 C1.07154327 0.00187317 2.14308655 0.00374634 3.24710083 0.00567627 C5.49777365 0.01236694 7.74843544 0.02622148 9.99902344 0.046875 C13.45518723 0.07821454 16.91089524 0.08786862 20.3671875 0.09375 C22.55729727 0.10291339 24.74740238 0.11328703 26.9375 0.125 C27.97389618 0.12924988 29.01029236 0.13349976 30.07809448 0.13787842 C31.03313873 0.14748596 31.98818298 0.15709351 32.97216797 0.16699219 C33.81407684 0.17382019 34.65598572 0.18064819 35.52340698 0.18768311 C37.5703125 0.328125 37.5703125 0.328125 39.5703125 1.328125 C39.59719401 2.97387066 39.61665373 4.61973913 39.6328125 6.265625 C39.64441406 7.18214844 39.65601563 8.09867187 39.66796875 9.04296875 C39.5703125 11.328125 39.5703125 11.328125 38.5703125 12.328125 C39.2303125 12.369375 39.8903125 12.410625 40.5703125 12.453125 C44.95945205 13.7332907 48.05557779 16.47621867 51.5703125 19.328125 C51.21326813 22.11186078 50.78198996 23.1409214 48.64453125 25.03125 C47.85691406 25.54171875 47.06929688 26.0521875 46.2578125 26.578125 C45.47792969 27.09890625 44.69804687 27.6196875 43.89453125 28.15625 C41.5703125 29.328125 41.5703125 29.328125 37.5703125 29.328125 C38.2303125 29.658125 38.8903125 29.988125 39.5703125 30.328125 C39.5703125 33.628125 39.5703125 36.928125 39.5703125 40.328125 C37.17170574 41.52742838 35.65070369 41.4675345 32.97216797 41.48925781 C32.01712372 41.49886536 31.06207947 41.5084729 30.07809448 41.51837158 C29.0416983 41.52262146 28.00530212 41.52687134 26.9375 41.53125 C25.33879562 41.53980011 25.33879562 41.53980011 23.70779419 41.54852295 C21.44648229 41.55798425 19.18515654 41.5645114 16.92382812 41.56835938 C13.48021957 41.578027 10.03721742 41.6090245 6.59375 41.640625 C4.39583687 41.64715883 2.19791948 41.65240781 0 41.65625 C-1.02425079 41.6685968 -2.04850159 41.6809436 -3.10379028 41.69366455 C-12.18241398 41.66569017 -18.82861264 39.77568649 -25.4296875 33.328125 C-29.06651316 28.93885265 -29.68769575 23.89142779 -29.4296875 18.328125 C-27.85780145 11.54936641 -25.30155684 7.05450362 -19.4296875 3.328125 C-12.80606376 0.27449077 -7.23749068 -0.08724412 0 0 Z M23.5703125 18.328125 C22.5803125 18.823125 22.5803125 18.823125 21.5703125 19.328125 C21.5703125 20.318125 21.5703125 21.308125 21.5703125 22.328125 C22.5603125 22.658125 23.5503125 22.988125 24.5703125 23.328125 C25.2303125 22.668125 25.8903125 22.008125 26.5703125 21.328125 C26.5703125 20.668125 26.5703125 20.008125 26.5703125 19.328125 C25.5803125 18.998125 24.5903125 18.668125 23.5703125 18.328125 Z " fill="#FAECBC" transform="translate(88.4296875,107.671875)"/>
<path d="M0 0 C0.9796875 0.00515625 1.959375 0.0103125 2.96875 0.015625 C3.9484375 0.01046875 4.928125 0.0053125 5.9375 0 C8.46875 0.265625 8.46875 0.265625 10.46875 2.265625 C10.6640625 5.3046875 10.6640625 5.3046875 10.59375 8.890625 C10.57570312 10.07914063 10.55765625 11.26765625 10.5390625 12.4921875 C10.51585937 13.40742187 10.49265625 14.32265625 10.46875 15.265625 C7.50666046 16.13744568 5.96059567 16.46077667 3.046875 15.3046875 C2.27859375 14.83804688 1.5103125 14.37140625 0.71875 13.890625 C-0.05984375 13.42914063 -0.8384375 12.96765625 -1.640625 12.4921875 C-3.53125 11.265625 -3.53125 11.265625 -4.53125 10.265625 C-4.80439815 4.52951389 -4.80439815 4.52951389 -4.53125 2.265625 C-2.53125 0.265625 -2.53125 0.265625 0 0 Z " fill="#FAECBC" transform="translate(133.53125,107.734375)"/>
<path d="M0 0 C0.05386629 2.12472576 0.09273071 4.24983652 0.125 6.375 C0.14820313 7.55835938 0.17140625 8.74171875 0.1953125 9.9609375 C0 13 0 13 -2 15 C-4.53125 15.265625 -4.53125 15.265625 -7.5 15.25 C-8.4796875 15.25515625 -9.459375 15.2603125 -10.46875 15.265625 C-13 15 -13 15 -15 13 C-16.00549451 7.97252747 -16.00549451 7.97252747 -15 5 C-10.46319505 0.82476205 -6.13212141 -1.84516086 0 0 Z " fill="#FAECBC" transform="translate(144,134)"/>
<path d="M0 0 C4.5306358 0.38834021 7.68025327 1.9118635 11 5 C11.56883504 8.0641963 11.49244361 10.92690255 11 14 C9.12356239 15.87643761 6.50194299 15.17984987 4.0078125 15.23046875 C2 15 2 15 -1 13 C-1.328125 10.21484375 -1.328125 10.21484375 -1.25 6.9375 C-1.23453125 5.85339844 -1.2190625 4.76929688 -1.203125 3.65234375 C-1 1 -1 1 0 0 Z " fill="#FAECBC" transform="translate(148,134)"/>
<path d="M0 0 C0.66 0.33 1.32 0.66 2 1 C2.49047771 4.12679538 2.68562383 6.89391627 2 10 C-0.32027156 12.41971177 -2.8592672 13.85947842 -6 15 C-7.32 15 -8.64 15 -10 15 C-10.08078641 12.87561661 -10.13909141 10.7503677 -10.1875 8.625 C-10.22230469 7.44164063 -10.25710937 6.25828125 -10.29296875 5.0390625 C-10.19628906 4.03617187 -10.09960938 3.03328125 -10 2 C-6.33134759 -0.44576827 -4.32799657 -0.23607254 0 0 Z " fill="#FAECBC" transform="translate(157,108)"/>
<path d="M0 0 C3.0625 2.5 3.0625 2.5 4.0625 6.5 C1.7525 8.15 -0.5575 9.8 -2.9375 11.5 C-6.2375 9.85 -9.5375 8.2 -12.9375 6.5 C-11.9375 2.5 -11.9375 2.5 -10.3359375 1.09375 C-6.44368057 -1.01017266 -4.10019775 -2.1731897 0 0 Z " fill="#FAECBC" transform="translate(164.9375,123.5)"/>
<path d="M0 0 C0 3.3 0 6.6 0 10 C-4.17908064 12.08954032 -4.80410573 12.16552619 -9 11 C-9.43338684 5.71268058 -9.43338684 5.71268058 -9 3 C-5.80434964 0.15942191 -4.3252957 0 0 0 Z " fill="#FAECBC" transform="translate(174,137)"/>
<path d="M0 0 C0.66 0.33 1.32 0.66 2 1 C2 4.3 2 7.6 2 11 C-1.73487777 10.5020163 -3.81237635 10.12508244 -7 8 C-7.40843923 5.28796348 -7.13336867 2.7562858 -7 0 C-4.30919898 -1.34540051 -2.86443593 -0.71610898 0 0 Z " fill="#FAECBC" transform="translate(172,109)"/>
<path d="M0 0 C2.46800047 1.15173355 4.04783565 2.04783565 6 4 C5.8125 6.0625 5.8125 6.0625 5 8 C4.01 8.33 3.02 8.66 2 9 C1.01 8.34 0.02 7.68 -1 7 C-1.25 3.9375 -1.25 3.9375 -1 1 C-0.67 0.67 -0.34 0.34 0 0 Z " fill="#FAECBC" transform="translate(184,138)"/>
<path d="M0 0 C2.00720923 0.28674418 4.0085944 0.61866701 6 1 C6 2.32 6 3.64 6 5 C4.1875 6.8125 4.1875 6.8125 2 8 C1.01 7.67 0.02 7.34 -1 7 C-1.04254356 5.00045254 -1.04080783 2.99958364 -1 1 C-0.67 0.67 -0.34 0.34 0 0 Z " fill="#FAECBC" transform="translate(184,111)"/>
<path d="M0 0 C0 0.99 0 1.98 0 3 C-4.75 4.125 -4.75 4.125 -7 3 C-7 2.01 -7 1.02 -7 0 C-4.3333581 -1.33332095 -2.83319697 -0.67102033 0 0 Z " fill="#FAECBC" transform="translate(198,127)"/>
</svg>
